<?xml version="1.0" encoding="UTF-8"?>
<svg width="206px" height="34px" viewBox="0 0 206 34" version="1.1" xmlns="http://www.w3.org/2000/svg" xmlns:xlink="http://www.w3.org/1999/xlink">
    <!-- Generator: Sketch 64 (93537) - https://sketch.com -->
    <title>Logo</title>
    <desc>Created with Sketch.</desc>
    <g id="Public" stroke="none" stroke-width="1" fill="none" fill-rule="evenodd">
        <g id="Login-/-Signup" transform="translate(-1055.000000, -168.000000)" fill="#FFFFFF">
            <g id="Group-4" transform="translate(877.000000, 0.000000)">
                <g id="Register" transform="translate(119.000000, 168.000000)">
                    <g id="Logo" transform="translate(59.000000, 0.000000)">
                        <path d="M11.5887894,11.1973333 C17.1754169,11.1973333 23.1775788,15.1866667 23.1775788,22.576 C23.1775788,23.8 22.1618283,24.7973333 20.869055,24.7973333 L4.94024089,24.7973333 C5.90982088,27.5173333 8.49536752,29.4666667 11.5887894,29.4666667 C12.6507103,29.4666667 14.5436998,29.376 16.7598827,27.9706667 C17.8218036,27.2906667 19.2530883,27.9253333 19.8071341,29.0133333 C20.3611798,30.1466667 19.7609636,31.3253333 18.6990426,32.0053333 C15.6517912,34 13.297097,33.9547524 11.5887894,33.9547524 C5.17109327,33.9547524 0,28.832 0,22.576 C0,16.2746667 5.17109327,11.1973333 11.5887894,11.1973333 Z M11.5887894,15.6853333 C8.49536752,15.6853333 5.90982088,17.6346667 4.94024089,20.3093333 L18.2835084,20.3093333 C17.3139284,17.136 14.3590179,15.6853333 11.5887894,15.6853333 Z M41.8837245,11.424 C43.0841569,11.832 43.6843731,13.1466667 43.2226683,14.3253333 L36.297097,32.4586667 C35.9277332,33.3653333 35.0504941,33.9546667 34.1270846,33.9546667 L34.0809142,33.9546667 C33.1113342,33.9546667 32.2340951,33.32 31.9109018,32.4586667 L24.9853305,14.3253333 C24.5236257,13.1466667 25.1238419,11.832 26.3242742,11.424 C27.5247066,10.9706667 28.8174799,11.56 29.2791847,12.7386667 L34.1270846,25.3866667 L38.9288141,12.7386667 C39.3905189,11.56 40.6832922,10.9706667 41.8837245,11.424 Z M56.480698,11.1973333 C62.0673255,11.1973333 68.0694874,15.1866667 68.0694874,22.576 C68.0694874,23.8 67.0537369,24.7973333 65.7609636,24.7973333 L49.8321495,24.7973333 C50.8017295,27.5173333 53.3872761,29.4666667 56.480698,29.4666667 C57.5426189,29.4666667 59.4356084,29.376 61.6517912,27.9706667 C62.7137122,27.2906667 64.1449969,27.9253333 64.6990426,29.0133333 C65.2530883,30.1466667 64.6528722,31.3253333 63.5909512,32.0053333 C60.5436998,34 58.1890056,33.9547524 56.480698,33.9547524 C50.0630019,33.9547524 44.8919086,28.832 44.8919086,22.576 C44.8919086,16.2746667 50.0630019,11.1973333 56.480698,11.1973333 Z M56.480698,15.6853333 C53.3872761,15.6853333 50.8017295,17.6346667 49.8321495,20.3093333 L63.1754169,20.3093333 C62.205837,17.136 59.2509265,15.6853333 56.480698,15.6853333 Z M83.174336,11.2426667 C84.4671093,11.2426667 85.4828598,12.24 85.4828598,13.464 C85.4828598,14.688 84.4671093,15.7306667 83.174336,15.7306667 C79.2960161,15.7306667 76.1564237,18.8133333 76.1564237,22.6213333 L76.1564237,31.7333333 C76.1564237,32.9573333 75.1406733,34 73.8940704,34 C72.6012971,34 71.5855466,32.9573333 71.5855466,31.7333333 L71.5855466,22.6213333 C71.5855466,16.32 76.8028104,11.2426667 83.174336,11.2426667 Z M97.5404571,34 C91.1689314,34 85.9978382,28.8773333 85.9978382,22.6213333 C85.9978382,16.32 91.1689314,11.2426667 97.5404571,11.2426667 C101.6958,11.2426667 105.527949,13.4186667 107.605621,16.9093333 C108.252007,17.9973333 107.836473,19.3573333 106.774552,19.992 C105.666461,20.5813333 104.281347,20.2186667 103.63496,19.176 C102.388357,17.0453333 100.079833,15.7306667 97.5404571,15.7306667 C93.7083076,15.7306667 90.5225448,18.8133333 90.5225448,22.6213333 C90.5225448,26.384 93.7083076,29.512 97.5404571,29.512 C99.9413218,29.512 102.157505,28.3333333 103.450278,26.3386667 C104.142835,25.296 105.57412,25.024 106.636041,25.6586667 C107.697962,26.3386667 107.974985,27.744 107.282427,28.7866667 C105.158586,32.0506667 101.511118,34 97.5404571,34 Z M113.799568,34 C112.506794,34 111.491044,33.0026667 111.491044,31.7333333 L111.491044,2.22133333 C111.491044,0.997333333 112.506794,0 113.799568,0 C115.04617,0 116.061921,0.997333333 116.061921,2.22133333 L116.061921,31.7333333 C116.061921,33.0026667 115.04617,34 113.799568,34 Z M131.16677,11.1973333 C136.753397,11.1973333 142.755559,15.1866667 142.755559,22.576 C142.755559,23.8 141.739809,24.7973333 140.447035,24.7973333 L124.518221,24.7973333 C125.487801,27.5173333 128.073348,29.4666667 131.16677,29.4666667 C132.228691,29.4666667 134.12168,29.376 136.337863,27.9706667 C137.399784,27.2906667 138.831069,27.9253333 139.385114,29.0133333 C139.93916,30.1466667 139.338944,31.3253333 138.277023,32.0053333 C135.229771,34 132.875077,33.9547524 131.16677,33.9547524 C124.749073,33.9547524 119.57798,28.832 119.57798,22.576 C119.57798,16.2746667 124.749073,11.1973333 131.16677,11.1973333 Z M131.16677,15.6853333 C128.073348,15.6853333 125.487801,17.6346667 124.518221,20.3093333 L137.861489,20.3093333 C136.891909,17.136 133.936998,15.6853333 131.16677,15.6853333 Z M158.691476,11.1973333 C159.98425,11.1973333 161,12.1946667 161,13.4186667 C161,14.688 159.98425,15.6853333 158.691476,15.6853333 L154.628474,15.6853333 L154.628474,31.688 C154.628474,32.9573333 153.612724,33.9546667 152.319951,33.9546667 C151.073348,33.9546667 150.057597,32.9573333 150.057597,31.688 L150.057597,15.6853333 L147.518221,15.6853333 C146.271618,15.6853333 145.255868,14.688 145.255868,13.4186667 C145.255868,12.1946667 146.271618,11.1973333 147.518221,11.1973333 L150.057597,11.1973333 C150.011427,7.97866667 151.211859,5.032 153.428042,2.856 C154.674645,1.632 156.10593,0.725333333 157.768067,0.181333333 C158.922329,-0.272 160.261272,0.362666667 160.676807,1.54133333 C161.092341,2.67466667 160.492125,3.98933333 159.291692,4.39733333 C158.322112,4.71466667 157.444873,5.25866667 156.659975,6.02933333 C155.274861,7.38933333 154.628474,9.15733333 154.628474,11.1973333 L158.691476,11.1973333 Z" id="everclef"></path>
                        <path d="M206,18.0210663 C206,8.0842789 198.149522,0 188.5,0 C178.850478,0 171,8.0842789 171,18.0210663 C171,19.9021563 171.280892,21.7542057 171.833312,23.5286607 L171.833312,27.3070252 C171.833312,29.0823985 173.256943,30.5635788 175.131895,30.8792365 L175.131895,31.2350687 C175.131895,32.7596377 176.496226,34 178.173328,34 C179.850318,34 181.21465,32.7596377 181.21465,31.2350687 L181.21465,19.5815629 C181.21465,18.0569939 179.850318,16.8166316 178.173328,16.8166316 C177.389618,16.8166316 176.674347,17.0875233 176.134522,17.5317396 C176.385207,10.7306377 181.835287,5.2769921 188.5,5.2769921 C195.164713,5.2769921 200.614904,10.7307525 200.865366,17.5319692 C200.325541,17.0877528 199.610159,16.8166316 198.826449,16.8166316 C197.149347,16.8166316 195.785016,18.0569939 195.785016,19.5815629 L195.785016,31.2350687 C195.785016,32.7596377 197.149347,34 198.826449,34 C200.503439,34 201.867771,32.7596377 201.867771,31.2350687 L201.867771,30.8792365 C203.742611,30.5634641 205.166354,29.0823985 205.166354,27.3070252 L205.166354,23.5296938 C205.718997,21.7548944 206,19.9025006 206,18.0210663 Z M173.393822,27.3071399 L173.393822,23.5093769 C173.393822,22.6031525 174.125478,21.8342105 175.131895,21.5749121 L175.131895,29.2417195 C174.125478,28.9825359 173.393822,28.2132495 173.393822,27.3071399 Z M176.692293,19.5815629 C176.692293,18.9539207 177.370446,18.4236159 178.173217,18.4236159 C178.975876,18.4236159 179.654029,18.9539207 179.654029,19.5815629 L179.654029,31.2350687 C179.654029,31.8627109 178.975876,32.3930157 178.173217,32.3930157 C177.370446,32.3930157 176.692293,31.8627109 176.692293,31.2350687 L176.692293,19.5815629 Z M188.5,3.6700078 C180.815717,3.6700078 174.563981,10.1079313 174.563981,18.0210663 C174.563981,18.6947371 174.610462,19.3679488 174.70086,20.0318629 C173.974443,20.2307846 173.334634,20.6091146 172.844411,21.1090015 C172.65715,20.096257 172.56051,19.0638844 172.56051,18.0210663 C172.56051,8.97030117 179.710876,1.6069843 188.5,1.6069843 C197.289124,1.6069843 204.43949,8.97030117 204.43949,18.0210663 C204.43949,19.0638844 204.34285,20.096257 204.155589,21.109231 C203.665478,20.6093441 203.025557,20.2308993 202.29914,20.0318629 C202.389427,19.3674896 202.435908,18.6941632 202.435908,18.0209516 C202.435908,10.1079313 196.184283,3.6700078 188.5,3.6700078 Z M200.307373,31.2351835 C200.307373,31.8628257 199.62922,32.3931305 198.826561,32.3931305 C198.02379,32.3931305 197.345637,31.8628257 197.345637,31.2351835 L197.345637,19.5815629 C197.345637,18.9539207 198.02379,18.4236159 198.826561,18.4236159 C199.62922,18.4236159 200.307373,18.9539207 200.307373,19.5815629 L200.307373,31.2351835 Z M203.605955,27.3071399 C203.605955,28.2133643 202.874188,28.9825359 201.867882,29.2418343 L201.867882,21.5750269 C202.874188,21.8343253 203.605955,22.6033821 203.605955,23.5094917 L203.605955,27.3071399 Z" id="Shape" fill-rule="nonzero"></path>
                    </g>
                </g>
            </g>
        </g>
    </g>
</svg>