<?xml version="1.0" encoding="UTF-8"?>
<svg width="116px" height="21px" viewBox="0 0 116 21" version="1.1" xmlns="http://www.w3.org/2000/svg" xmlns:xlink="http://www.w3.org/1999/xlink">
    <!-- Generator: Sketch 52.6 (67491) - http://www.bohemiancoding.com/sketch -->
    <title>Logo</title>
    <desc>Created with Sketch.</desc>
    <g id="Symbols" stroke="none" stroke-width="1" fill="none" fill-rule="evenodd">
        <g id="Header" transform="translate(-25.000000, -25.000000)">
            <g id="Logo">
                <g transform="translate(25.000000, 20.000000)">
                    <text id="everclef" font-family="Arciform, Arciform Sans" font-size="26" font-weight="normal" letter-spacing="0.419999987" fill="#000000">
                        <tspan x="0" y="25">evercle</tspan>
                        <tspan x="81.0959999" y="25">f</tspan>
                    </text>
                    <path d="M116,16.0705959 C116,10.5176853 111.514013,6 106,6 C100.485987,6 96,10.5176853 96,16.0705959 C96,17.1217932 96.1605096,18.156762 96.4761783,19.1483692 L96.4761783,21.2598082 C96.4761783,22.2519285 97.2896815,23.079647 98.3610828,23.2560439 L98.3610828,23.4548913 C98.3610828,24.3068564 99.1407006,25 100.099045,25 C101.057325,25 101.836943,24.3068564 101.836943,23.4548913 L101.836943,16.9426381 C101.836943,16.0906731 101.057325,15.3975294 100.099045,15.3975294 C99.6512102,15.3975294 99.2424841,15.5489101 98.9340127,15.7971486 C99.0772611,11.9965328 102.191592,8.94890735 106,8.94890735 C109.808408,8.94890735 112.922803,11.996597 113.065924,15.7972769 C112.757452,15.5490383 112.348662,15.3975294 111.900828,15.3975294 C110.942484,15.3975294 110.162866,16.0906731 110.162866,16.9426381 L110.162866,23.4548913 C110.162866,24.3068564 110.942484,25 111.900828,25 C112.859108,25 113.638726,24.3068564 113.638726,23.4548913 L113.638726,23.2560439 C114.710064,23.0795829 115.523631,22.2519285 115.523631,21.2598082 L115.523631,19.1489465 C115.839427,18.1571469 116,17.1219856 116,16.0705959 Z M97.3678981,21.2598723 L97.3678981,19.137593 C97.3678981,18.6311735 97.7859873,18.2014706 98.3610828,18.0565685 L98.3610828,22.3409609 C97.7859873,22.196123 97.3678981,21.7662277 97.3678981,21.2598723 Z M99.2527389,16.9426381 C99.2527389,16.5918969 99.6402548,16.2955501 100.098981,16.2955501 C100.557643,16.2955501 100.945159,16.5918969 100.945159,16.9426381 L100.945159,23.4548913 C100.945159,23.8056325 100.557643,24.1019794 100.098981,24.1019794 C99.6402548,24.1019794 99.2527389,23.8056325 99.2527389,23.4548913 L99.2527389,16.9426381 Z M106,8.05088671 C101.608981,8.05088671 98.0365605,11.6485498 98.0365605,16.0705959 C98.0365605,16.447059 98.063121,16.8232655 98.1147771,17.1942763 C97.6996815,17.3054384 97.3340764,17.5168581 97.053949,17.7962067 C96.9469427,17.2302613 96.8917197,16.6533472 96.8917197,16.0705959 C96.8917197,11.0128154 100.977643,6.89802064 106,6.89802064 C111.022357,6.89802064 115.10828,11.0128154 115.10828,16.0705959 C115.10828,16.6533472 115.053057,17.2302613 114.946051,17.796335 C114.665987,17.5169864 114.300318,17.3055026 113.885223,17.1942763 C113.936815,16.8230089 113.963376,16.4467383 113.963376,16.0705318 C113.963376,11.6485498 110.391019,8.05088671 106,8.05088671 Z M112.74707,23.4549555 C112.74707,23.8056967 112.359554,24.1020435 111.900892,24.1020435 C111.442166,24.1020435 111.05465,23.8056967 111.05465,23.4549555 L111.05465,16.9426381 C111.05465,16.5918969 111.442166,16.2955501 111.900892,16.2955501 C112.359554,16.2955501 112.74707,16.5918969 112.74707,16.9426381 L112.74707,23.4549555 Z M114.631975,21.2598723 C114.631975,21.7662918 114.213822,22.196123 113.63879,22.341025 L113.63879,18.0566327 C114.213822,18.2015347 114.631975,18.6313018 114.631975,19.1376571 L114.631975,21.2598723 Z" id="Shape" fill="#457FFD" fill-rule="nonzero"></path>
                </g>
            </g>
        </g>
    </g>
</svg>